<?xml version="1.0" encoding="utf-8"?><svg viewBox="0 0 530 560" xmlns="http://www.w3.org/2000/svg" xmlns:xlink="http://www.w3.org/1999/xlink"><style>:root>svg{display:none}:root>svg:target{display:block}</style><svg viewBox="0 0 188 52" id="Companie-1" xmlns="http://www.w3.org/2000/svg"><path d="M46.253 11.993h4.477v25.699h-4.477v-25.7zM52.222 28.269c0-1.866.44-3.69 1.26-5.241.822-1.55 1.99-2.758 3.355-3.47 1.366-.712 2.868-.895 4.316-.527 1.449.368 2.778 1.27 3.82 2.594 1.041 1.323 1.748 3.007 2.031 4.838a11.74 11.74 0 01-.442 5.45c-.57 1.72-1.534 3.188-2.766 4.217-1.233 1.029-2.679 1.572-4.156 1.561a6.046 6.046 0 01-2.858-.698c-.906-.471-1.728-1.166-2.42-2.043a9.782 9.782 0 01-1.603-3.068 11.479 11.479 0 01-.537-3.613zm10.686 0a4.851 4.851 0 00-.587-2.244c-.366-.659-.878-1.166-1.47-1.46a2.612 2.612 0 00-1.865-.189c-.623.17-1.192.568-1.637 1.144-.445.577-.745 1.306-.863 2.097-.118.79-.05 1.608.198 2.35.248.74.663 1.374 1.194 1.819.53.445 1.153.682 1.79.682.434.011.865-.091 1.266-.3.4-.21.763-.521 1.065-.915.301-.394.535-.863.686-1.376.152-.514.218-1.061.195-1.608h.028zM85.047 20.96v16.815c0 5.933-3.958 8.453-7.962 8.453-1.413.136-2.83-.193-4.091-.951-1.262-.758-2.318-1.914-3.05-3.338l3.852-2.609c.312.739.808 1.348 1.423 1.747.615.4 1.319.57 2.018.487a2.62 2.62 0 001.323-.152 2.995 2.995 0 001.142-.8c.326-.361.58-.804.743-1.294.163-.49.232-1.017.202-1.543V36.15a5.56 5.56 0 01-1.97 1.754 4.688 4.688 0 01-2.43.534c-2.019 0-3.955-.942-5.383-2.617-1.428-1.676-2.23-3.949-2.23-6.319s.802-4.642 2.23-6.318c1.428-1.675 3.364-2.617 5.383-2.617a4.688 4.688 0 012.43.534 5.561 5.561 0 011.97 1.753v-1.787l4.4-.107zm-4.4 8.488a4.876 4.876 0 00-.54-2.43c-.383-.728-.942-1.306-1.607-1.658a3.167 3.167 0 00-2.122-.318c-.718.145-1.384.538-1.91 1.13a4.531 4.531 0 00-1.044 2.192 4.99 4.99 0 00.181 2.502c.272.794.74 1.475 1.343 1.955.604.48 1.316.736 2.045.737.476.04.953-.037 1.402-.227a3.38 3.38 0 001.203-.876c.344-.387.615-.855.796-1.373.181-.518.267-1.075.253-1.634zM86.54 28.269c0-1.865.482-3.687 1.384-5.237.902-1.55 2.185-2.758 3.685-3.47a7.227 7.227 0 014.744-.534c1.592.365 3.054 1.265 4.201 2.584 1.147 1.32 1.927 3 2.242 4.83a10.73 10.73 0 01-.473 5.445c-.624 1.721-1.678 3.192-3.03 4.225-1.35 1.033-2.939 1.583-4.563 1.58a7.204 7.204 0 01-3.15-.694 8.134 8.134 0 01-2.67-2.04 9.524 9.524 0 01-1.772-3.07 10.535 10.535 0 01-.598-3.62zm11.754 0a4.512 4.512 0 00-.647-2.246c-.403-.659-.967-1.166-1.62-1.459a3.134 3.134 0 00-2.053-.186 3.47 3.47 0 00-1.8 1.149 4.329 4.329 0 00-.946 2.1c-.128.793-.05 1.61.224 2.352a4.01 4.01 0 001.32 1.815 3.242 3.242 0 001.974.674 3.08 3.08 0 001.392-.3c.441-.21.84-.521 1.172-.915.331-.394.588-.863.755-1.376.167-.514.24-1.061.213-1.608h.016zM104.444 15.185c0-.631.131-1.248.377-1.773.246-.525.596-.935 1.005-1.176a1.626 1.626 0 011.293-.182c.434.123.833.428 1.146.874.313.446.526 1.015.612 1.634.087.62.042 1.261-.127 1.845-.169.583-.456 1.082-.824 1.432-.368.351-.801.538-1.244.538-.591-.009-1.157-.348-1.575-.945-.418-.597-.656-1.403-.663-2.247zm.365 4.752h3.772v17.755h-3.772V19.937zM128.307 28.337a10.686 10.686 0 01-.434 3.517 9.558 9.558 0 01-1.535 3.048 7.862 7.862 0 01-2.399 2.112 6.646 6.646 0 01-2.897.852 4.851 4.851 0 01-2.495-.476 5.774 5.774 0 01-2.074-1.72v8.875h-4.569V19.352h4.569v1.688a5.75 5.75 0 012.076-1.712 4.832 4.832 0 012.493-.466c1 .054 1.98.342 2.886.847a7.856 7.856 0 012.393 2.098 9.515 9.515 0 011.538 3.03c.341 1.12.493 2.31.448 3.5zm-4.569 0a4.85 4.85 0 00-.651-2.351c-.406-.69-.974-1.223-1.633-1.53a3.055 3.055 0 00-2.071-.196c-.692.179-1.324.597-1.817 1.202a4.614 4.614 0 00-.954 2.198 5.041 5.041 0 00.225 2.462c.277.776.74 1.437 1.331 1.9.591.465 1.284.71 1.991.707.485.025.968-.073 1.419-.287a3.469 3.469 0 001.196-.954c.338-.414.599-.91.765-1.453a4.828 4.828 0 00.199-1.698zM140.254 31.811c0 4.104-2.849 5.85-5.869 5.85-1.231.14-2.468-.19-3.55-.948-1.081-.757-1.959-1.906-2.518-3.3l3.675-2.627c.146.642.462 1.201.895 1.584.433.384.957.568 1.484.521 1.011 0 1.524-.396 1.524-1.116 0-1.961-6.937-.917-6.937-7.09 0-3.888 2.593-5.831 5.527-5.831 1.115-.063 2.223.256 3.207.925.983.669 1.804 1.661 2.377 2.872l-3.675 2.448a2.57 2.57 0 00-.764-1.137 1.784 1.784 0 00-1.131-.43c-.74 0-1.182.36-1.182.99 0 2.052 6.937.703 6.937 7.29zM156.667 20.56v16.619h-4.228v-1.561a4.987 4.987 0 01-1.78 1.596c-.69.359-1.442.52-2.193.468-2.819 0-5.228-2.4-5.228-6.882V20.56h4.227v9.484a3.24 3.24 0 00.116 1.174c.109.376.286.72.518 1.007.231.288.513.512.824.657.312.145.646.208.98.184 1.522 0 2.593-1.075 2.593-3.358V20.56h4.171zM180.54 26.436v11.256h-4.195V26.918c0-1.852-.657-3-1.985-3-1.329 0-2.168 1.278-2.168 3.444v10.33h-4.194V26.918c0-1.852-.657-3-1.986-3-1.328 0-2.167 1.278-2.167 3.444v10.33h-4.194V19.365h4.194v1.684c.435-.744 1.002-1.334 1.651-1.715a3.37 3.37 0 012.068-.47c.71-.048 1.417.148 2.052.57.634.422 1.176 1.055 1.57 1.837.461-.817 1.07-1.467 1.772-1.887.702-.421 1.473-.6 2.241-.52 3.271 0 5.341 3 5.341 7.572zM19.397 7.48V0H0v51.398h19.397v-7.481c-3.974 0-7.784-1.92-10.594-5.336-2.81-3.417-4.388-8.05-4.388-12.882 0-4.832 1.578-9.466 4.388-12.882 2.81-3.417 6.62-5.336 10.594-5.336z"/><path d="M19.396 6.853v37.692c3.957 0 7.752-1.986 10.55-5.52 2.799-3.534 4.37-8.328 4.37-13.326 0-4.998-1.571-9.792-4.37-13.326-2.798-3.534-6.593-5.52-10.55-5.52zM185.016 20.56c1.648 0 2.984-1.918 2.984-4.284 0-2.365-1.336-4.283-2.984-4.283s-2.984 1.918-2.984 4.283c0 2.366 1.336 4.283 2.984 4.283z"/></svg><svg viewBox="0 0 172 49" id="Companie-2" xmlns="http://www.w3.org/2000/svg"><path d="M49.238 13.672h4.35v21.543h-4.35V13.672zm6.076 13.409c0-5.328 2.668-8.507 6.786-8.507 4.118 0 6.786 3.18 6.786 8.507 0 5.328-2.61 8.525-6.786 8.525s-6.786-3.108-6.786-8.525zm9.208 0c0-2.93-.943-4.653-2.422-4.653s-2.407 1.776-2.407 4.653.913 4.618 2.407 4.618c1.493 0 2.422-1.634 2.422-4.6v-.018zm6.003 9.182H74.7c.199.54.535.988.958 1.276.423.288.91.401 1.39.322 1.654 0 2.524-1.1 2.524-2.7v-2.983h-.087c-.347.915-.91 1.68-1.615 2.2-.705.52-1.522.767-2.344.713-3.175 0-5.278-2.966-5.278-8.063s2.001-8.312 5.336-8.312c.848-.04 1.686.237 2.4.796.716.558 1.275 1.371 1.602 2.33v-2.966h4.35v16.161c0 3.89-2.798 6.305-6.93 6.305-3.843 0-6.236-2.113-6.482-5.061v-.018zm9.062-9.2c0-2.593-.971-4.226-2.508-4.226s-2.48 1.616-2.48 4.226c0 2.611.928 4.085 2.48 4.085 1.551 0 2.508-1.439 2.508-4.067v-.018zm5.989 0c0-5.328 2.668-8.507 6.786-8.507 4.118 0 6.8 3.18 6.8 8.507 0 5.328-2.61 8.525-6.8 8.525-4.19 0-6.786-3.09-6.786-8.507v-.018zm9.208 0c0-2.93-.943-4.653-2.422-4.653s-2.334 1.794-2.334 4.689.913 4.617 2.392 4.617c1.479 0 2.364-1.651 2.364-4.617v-.036zm6.032-12.059a3.192 3.192 0 01.342-1.522c.235-.455.575-.814.977-1.032a1.85 1.85 0 011.28-.193c.432.093.833.34 1.151.712.317.372.538.85.633 1.376a3.303 3.303 0 01-.098 1.575 2.71 2.71 0 01-.797 1.242c-.36.308-.787.478-1.226.489a1.764 1.764 0 01-.859-.146 2.097 2.097 0 01-.738-.554 2.666 2.666 0 01-.496-.87 3.108 3.108 0 01-.169-1.041v-.036zm0 3.908h4.35v16.303h-4.35V18.912zm20.14 8.151c0 5.328-1.928 8.365-5.234 8.365-.848.067-1.692-.187-2.418-.727-.726-.54-1.299-1.34-1.642-2.292h-.087v8.027h-4.35v-21.56h4.35v2.913h.087c.327-.968.889-1.789 1.61-2.351.721-.563 1.567-.84 2.421-.793 3.335.071 5.321 3.126 5.321 8.454l-.058-.036zm-4.35 0c0-2.593-.971-4.244-2.494-4.244-1.522 0-2.494 1.67-2.508 4.244-.015 2.576.986 4.227 2.508 4.227 1.523 0 2.494-1.616 2.494-4.191v-.036zm11.818-8.524c3.611 0 5.8 2.095 5.902 5.452h-3.959c0-1.154-.783-1.883-1.986-1.883-1.204 0-1.74.569-1.74 1.403 0 .835.478 1.101 1.45 1.35l2.784.693c2.653.692 3.784 2.007 3.784 4.475 0 3.375-2.508 5.541-6.206 5.541-3.697 0-6.119-2.166-6.307-5.488h4.19c.131 1.208.914 1.919 2.19 1.919 1.276 0 1.856-.515 1.856-1.368 0-.852-.406-1.03-1.45-1.296l-2.509-.658c-2.595-.657-3.958-2.344-3.958-4.83.029-3.197 2.363-5.275 5.959-5.275v-.035zm20.75 16.64h-4.191v-3.036h-.087c-.23 1.02-.738 1.912-1.44 2.529-.701.617-1.554.921-2.417.863a3.867 3.867 0 01-1.939-.376 4.678 4.678 0 01-1.637-1.328 5.978 5.978 0 01-1.04-2.04 6.844 6.844 0 01-.256-2.383V18.876h4.35v9.306c0 1.936.812 2.966 2.161 2.966.316 0 .629-.081.917-.24a2.32 2.32 0 00.754-.684c.209-.29.364-.633.456-1.003.092-.371.118-.761.077-1.145v-9.2h4.35l-.058 16.303zm2.102-16.303h4.206v3.143h.087c.23-1.006.727-1.89 1.412-2.513.685-.623 1.519-.951 2.372-.932.868-.085 1.73.233 2.416.891.685.659 1.142 1.608 1.282 2.661h.087c.263-1.064.807-1.99 1.548-2.633.74-.643 1.634-.967 2.541-.919a3.545 3.545 0 011.729.377 4.295 4.295 0 011.454 1.206c.41.523.726 1.145.927 1.827a6.25 6.25 0 01.24 2.131v11.1h-4.35v-9.68c0-1.775-.653-2.592-1.871-2.592a1.613 1.613 0 00-.789.201 1.975 1.975 0 00-.649.584 2.5 2.5 0 00-.394.86 2.8 2.8 0 00-.067.983v9.644h-4.133v-9.75c0-1.634-.652-2.522-1.841-2.522-.275 0-.547.072-.797.21-.251.138-.474.34-.657.591a2.567 2.567 0 00-.4.87c-.082.32-.108.659-.075.993v9.608h-4.35l.072-16.339zM37.192 14.712a24.871 24.871 0 00-2.86-5.695c-1.728-2.618-3.885-4.752-6.328-6.264C25.561 1.24 22.886.386 20.157.245c-2.73-.142-5.453.434-7.99 1.688C9.632 3.187 7.338 5.09 5.439 7.52 3.54 9.95 2.078 12.849 1.15 16.027a29.21 29.21 0 00-1.095 9.934c.206 3.37.987 6.647 2.29 9.616 1.305 2.97 3.102 5.564 5.275 7.613a18.206 18.206 0 004.576 3.236c2.301 1.167 4.764 1.767 7.25 1.77 5.133-.015 10.052-2.546 13.679-7.038 3.626-4.493 5.665-10.581 5.669-16.93a28.564 28.564 0 00-1.602-9.516zm-17.76-9.604c2.233 0 4.439.603 6.463 1.768a5.394 5.394 0 01-1.544.549c-1.75.313-3.37 1.318-4.62 2.864-1.25 1.546-2.062 3.55-2.315 5.714-.112 1.214-.558 2.343-1.264 3.197-.706.854-1.628 1.38-2.612 1.49-1.75.314-3.37 1.319-4.62 2.865-1.25 1.546-2.062 3.55-2.315 5.714-.086 1.154-.484 2.239-1.13 3.078-1.114-2.913-1.615-6.127-1.455-9.343.16-3.217.975-6.33 2.369-9.053 1.394-2.722 3.323-4.963 5.606-6.516 2.283-1.552 4.846-2.365 7.451-2.363l-.014.036zM7.606 36.61c.172-.195.343-.372.515-.584 1.272-1.526 2.088-3.54 2.316-5.713.093-1.222.534-2.363 1.244-3.22.684-.88 1.605-1.421 2.589-1.52 1.75-.314 3.37-1.319 4.62-2.864 1.25-1.547 2.062-3.551 2.315-5.715.062-1.278.505-2.482 1.244-3.378.7-.864 1.63-1.385 2.617-1.469 1.607-.273 3.106-1.157 4.29-2.529 1.348 1.383 2.49 3.047 3.375 4.917-.055.091-.117.174-.186.248-.683.888-1.602 1.441-2.589 1.556-1.75.308-3.374 1.311-4.625 2.858-1.25 1.547-2.061 3.555-2.31 5.721-.1 1.218-.539 2.355-1.24 3.219-.7.864-1.622 1.401-2.607 1.521-1.754.311-3.38 1.314-4.638 2.86-1.257 1.545-2.078 3.55-2.34 5.719a6.443 6.443 0 01-.7 2.423c-1.468-1.077-2.782-2.446-3.89-4.05zm11.826 6.827a12.755 12.755 0 01-4.29-.743c.477-1.1.787-2.299.915-3.537.1-1.215.536-2.35 1.235-3.214.698-.863 1.615-1.403 2.598-1.527 1.752-.31 3.375-1.313 4.628-2.859 1.253-1.546 2.067-3.553 2.321-5.72.1-1.214.536-2.35 1.235-3.213.698-.863 1.615-1.403 2.598-1.527 1.318-.212 2.575-.819 3.66-1.768.603 2.826.675 5.786.209 8.651-.465 2.866-1.455 5.562-2.894 7.881s-3.287 4.2-5.405 5.498c-2.117 1.297-4.447 1.978-6.81 1.99v.088z"/></svg><svg viewBox="0 0 196 46" id="Companie-3" xmlns="http://www.w3.org/2000/svg"><path d="M29.451 19.65a6.434 6.434 0 00-1.266 2.302 7.109 7.109 0 00-.291 2.702l-.027-.03a8.442 8.442 0 01-.37 3.173 7.632 7.632 0 01-1.502 2.7 6.435 6.435 0 01-2.352 1.721 5.702 5.702 0 01-2.765.426l.026.03a4.906 4.906 0 00-3.226.803c-.978.642-1.76 1.614-2.238 2.784a7.126 7.126 0 00-.437 3.755c.194 1.274.726 2.448 1.523 3.361.797.914 1.82 1.524 2.93 1.746a4.846 4.846 0 003.273-.505c1.019-.55 1.866-1.448 2.424-2.571a7.06 7.06 0 00.696-3.703l.029.03a8.438 8.438 0 01.37-3.173 7.63 7.63 0 011.501-2.7 6.434 6.434 0 012.352-1.722 5.702 5.702 0 012.766-.425l-.029-.03a4.844 4.844 0 002.682-.502 5.652 5.652 0 002.14-1.92 6.78 6.78 0 001.07-2.867c.14-1.043.05-2.11-.265-3.103a6.374 6.374 0 00-1.534-2.573 5.244 5.244 0 00-2.425-1.408 4.79 4.79 0 00-2.715.106 5.375 5.375 0 00-2.335 1.593h-.005z"/><path d="M18.947 29.037l-.027-.03c.775.09 1.558-.02 2.292-.32.734-.3 1.4-.784 1.952-1.416a6.217 6.217 0 001.235-2.24 6.88 6.88 0 00.28-2.633l.028.03a8.22 8.22 0 01.36-3.089 7.429 7.429 0 011.46-2.627 6.26 6.26 0 012.288-1.677 5.545 5.545 0 012.69-.414l-.028-.03a4.768 4.768 0 003.14-.778c.951-.624 1.712-1.57 2.178-2.709a6.942 6.942 0 00.427-3.655c-.188-1.24-.705-2.383-1.48-3.273-.775-.89-1.77-1.484-2.85-1.7a4.71 4.71 0 00-3.183.49c-.992.535-1.816 1.41-2.36 2.502a6.875 6.875 0 00-.677 3.605l-.026-.031a8.218 8.218 0 01-.36 3.09 7.429 7.429 0 01-1.46 2.627 6.26 6.26 0 01-2.288 1.676c-.86.361-1.778.502-2.69.413l.026.032a4.629 4.629 0 00-2.292.32c-.734.3-1.4.784-1.952 1.417a6.218 6.218 0 00-1.235 2.24 6.88 6.88 0 00-.28 2.632l-.027-.03a8.223 8.223 0 01-.36 3.089 7.432 7.432 0 01-1.46 2.627A6.261 6.261 0 019.98 30.85a5.545 5.545 0 01-2.69.415l.027.03a4.768 4.768 0 00-3.14.778c-.951.624-1.712 1.57-2.179 2.71a6.941 6.941 0 00-.426 3.655c.188 1.24.705 2.382 1.48 3.272.775.89 1.77 1.484 2.85 1.7a4.71 4.71 0 003.183-.49c.992-.535 1.816-1.409 2.36-2.502a6.875 6.875 0 00.677-3.605l.027.03a8.22 8.22 0 01.36-3.089 7.429 7.429 0 011.46-2.627 6.26 6.26 0 012.288-1.677 5.544 5.544 0 012.69-.414zM8.754 26.237a6.564 6.564 0 001.186-2.303 7.552 7.552 0 00.273-2.702l.026.03a8.97 8.97 0 01.348-3.174 7.787 7.787 0 011.408-2.7c.624-.764 1.377-1.352 2.206-1.722a5.048 5.048 0 012.594-.425l-.026-.03c1.051.12 2.108-.159 3.025-.8.917-.641 1.65-1.613 2.1-2.783.449-1.17.592-2.481.41-3.755-.181-1.273-.68-2.447-1.426-3.361C20.13 1.598 19.172.988 18.13.765c-1.04-.222-2.111-.047-3.067.503s-1.75 1.448-2.274 2.57a7.466 7.466 0 00-.654 3.703l-.025-.031a8.972 8.972 0 01-.347 3.174 7.788 7.788 0 01-1.408 2.7c-.624.763-1.376 1.351-2.205 1.722a5.048 5.048 0 01-2.593.425l.025.031a4.299 4.299 0 00-2.514.502c-.79.424-1.48 1.085-2.006 1.922A7.063 7.063 0 00.06 20.852a7.602 7.602 0 00.249 3.103c.295.993.79 1.878 1.439 2.573.648.696 1.43 1.18 2.273 1.408a4.224 4.224 0 002.545-.106c.828-.297 1.582-.845 2.19-1.593h-.002zM53.715 9.238h4.476v23.985h-4.477V9.238zM59.683 24.691c-.006-1.696.427-3.355 1.243-4.768.816-1.413 1.979-2.517 3.342-3.17a6.572 6.572 0 014.312-.502c1.45.327 2.782 1.14 3.828 2.337 1.046 1.196 1.76 2.722 2.05 4.385a9.752 9.752 0 01-.42 4.954c-.563 1.567-1.52 2.907-2.747 3.85-1.227.943-2.671 1.446-4.148 1.446a6.548 6.548 0 01-2.86-.623 7.388 7.388 0 01-2.43-1.845 8.649 8.649 0 01-1.616-2.781 9.575 9.575 0 01-.554-3.283zm10.698 0a4.1 4.1 0 00-.59-2.037 3.351 3.351 0 00-1.47-1.325 2.848 2.848 0 00-1.865-.17 3.153 3.153 0 00-1.635 1.042 3.932 3.932 0 00-.861 1.905 4.231 4.231 0 00.2 2.135 3.65 3.65 0 001.193 1.652 2.95 2.95 0 001.79.62 2.8 2.8 0 001.274-.266c.404-.189.77-.471 1.074-.83.304-.36.54-.787.694-1.256.153-.47.22-.97.196-1.47zM92.508 16.561v15.626c0 5.529-3.632 7.866-7.32 7.866-1.298.115-2.598-.196-3.757-.9-1.16-.703-2.132-1.773-2.813-3.09l3.548-2.435c.286.687.743 1.253 1.307 1.624.565.37 1.212.527 1.854.449.41.068.828.025 1.223-.125.394-.15.755-.404 1.056-.742.3-.338.534-.752.681-1.212.148-.459.207-.952.173-1.442v-1.504a5.122 5.122 0 01-1.81 1.64 4.256 4.256 0 01-2.239.5c-1.83-.07-3.564-.98-4.838-2.54-1.273-1.56-1.985-3.647-1.985-5.82 0-2.172.712-4.26 1.985-5.82 1.274-1.56 3.009-2.47 4.838-2.538a4.255 4.255 0 012.239.498 5.122 5.122 0 011.81 1.64v-1.678l4.048.003zm-4.047 7.898a4.576 4.576 0 00-.498-2.26c-.352-.679-.867-1.216-1.478-1.543a2.883 2.883 0 00-1.953-.295c-.661.136-1.273.502-1.757 1.054a4.237 4.237 0 00-.958 2.041 4.69 4.69 0 00.169 2.328c.25.739.682 1.371 1.238 1.817a3 3 0 001.883.681c.437.036.876-.037 1.287-.214a3.11 3.11 0 001.104-.815c.316-.36.565-.795.731-1.276.166-.481.245-.998.232-1.518zM95.493 24.691c-.006-1.696.426-3.355 1.242-4.768.817-1.413 1.98-2.517 3.342-3.17a6.574 6.574 0 014.313-.502c1.449.327 2.781 1.14 3.828 2.337 1.046 1.196 1.759 2.722 2.05 4.385a9.752 9.752 0 01-.42 4.954c-.564 1.567-1.52 2.907-2.747 3.85-1.228.943-2.671 1.446-4.148 1.446a6.548 6.548 0 01-2.861-.623 7.387 7.387 0 01-2.429-1.845 8.649 8.649 0 01-1.617-2.781 9.575 9.575 0 01-.553-3.283zm10.697 0a4.088 4.088 0 00-.589-2.037 3.348 3.348 0 00-1.471-1.325 2.848 2.848 0 00-1.864-.17 3.154 3.154 0 00-1.635 1.042 3.932 3.932 0 00-.861 1.905 4.231 4.231 0 00.2 2.135 3.649 3.649 0 001.193 1.652c.53.404 1.153.62 1.79.62a2.8 2.8 0 001.274-.266c.404-.189.77-.471 1.074-.83.304-.36.54-.787.693-1.256.153-.47.22-.97.196-1.47zM111.905 12.22a2.98 2.98 0 011.842-2.755 2.99 2.99 0 013.252.646 2.976 2.976 0 01.647 3.25 2.981 2.981 0 01-2.757 1.84 3.015 3.015 0 01-2.984-2.982zm.503 4.438h4.975v16.565h-4.982l.007-16.565zM135.768 24.966a9.22 9.22 0 01-.432 3.267 8.661 8.661 0 01-1.538 2.834 7.77 7.77 0 01-2.408 1.966 7.098 7.098 0 01-2.909.797 5.256 5.256 0 01-2.481-.461 5.76 5.76 0 01-2.061-1.588v8.295h-4.573V16.57h4.573v1.577a5.753 5.753 0 012.062-1.586 5.253 5.253 0 012.48-.46 7.09 7.09 0 012.909.796 7.76 7.76 0 012.409 1.966 8.625 8.625 0 011.537 2.835 9.224 9.224 0 01.432 3.268zm-4.574 0a4.28 4.28 0 00-.655-2.193 3.708 3.708 0 00-1.647-1.427 3.317 3.317 0 00-2.089-.187 3.557 3.557 0 00-1.834 1.117 4.152 4.152 0 00-.967 2.047 4.371 4.371 0 00.222 2.295 3.929 3.929 0 001.337 1.777 3.395 3.395 0 002.006.667 3.2 3.2 0 001.436-.265 3.483 3.483 0 001.211-.888c.342-.387.607-.85.776-1.356a4.213 4.213 0 00.204-1.587zM149.207 27.883c0 3.725-3.174 5.311-6.602 5.311a6.837 6.837 0 01-3.993-.858 7.036 7.036 0 01-2.834-2.996l4.126-2.396a2.662 2.662 0 001.016 1.441 2.57 2.57 0 001.678.47c1.142 0 1.715-.357 1.715-1.003 0-1.784-7.811-.843-7.811-6.446 0-3.532 2.921-5.312 6.223-5.312 1.241-.04 2.47.26 3.559.87a7.007 7.007 0 012.631 2.595l-4.063 2.235a2.346 2.346 0 00-.853-1.04 2.275 2.275 0 00-1.274-.385c-.826 0-1.334.327-1.334.906.006 1.847 7.816.615 7.816 6.608zM164.128 16.09v16.654h-4.199v-1.566a4.945 4.945 0 01-1.794 1.589 4.11 4.11 0 01-2.206.443c-2.827 0-5.23-2.397-5.23-6.897V16.091h4.198v9.49c-.035.397.003.798.111 1.175.109.378.285.723.516 1.01.232.289.514.514.826.66.312.145.647.207.981.183 1.54 0 2.603-1.065 2.603-3.43v-9.083l4.194-.005zM189.493 23.001v10.222h-4.477v-9.79c0-1.665-.716-2.73-2.148-2.73-1.492 0-2.328 1.166-2.328 3.13v9.39h-4.475v-9.79c0-1.665-.716-2.73-2.15-2.73-1.492 0-2.327 1.166-2.327 3.13v9.39h-4.476v-16.65h4.476v1.53a4.7 4.7 0 011.772-1.566 4.163 4.163 0 012.227-.43 4.058 4.058 0 012.214.524 4.635 4.635 0 011.694 1.673 5.06 5.06 0 011.91-1.72 4.473 4.473 0 012.418-.477c3.426.002 5.67 2.732 5.67 6.894zM192.477 16.09c1.648 0 2.984-1.533 2.984-3.426 0-1.892-1.336-3.426-2.984-3.426s-2.984 1.534-2.984 3.426c0 1.893 1.336 3.427 2.984 3.427z"/></svg><svg viewBox="0 0 244 57" id="Companie-4" xmlns="http://www.w3.org/2000/svg"><path d="M78.102 44.705a6.043 6.043 0 01-3.877-1.142 3.694 3.694 0 01-1.107-1.374 3.793 3.793 0 01-.356-1.745V18.38a.635.635 0 01.172-.513.602.602 0 01.501-.177h3.9c.442 0 .65.238.65.69v20.35c0 .905.395 1.358 1.208 1.358.345.014.69-.026 1.022-.12.464 0 .72.143.743.572l.348 2.975a.633.633 0 01-.115.499.607.607 0 01-.442.239 8.555 8.555 0 01-2.647.452zM96.104 42.33c-1.744 1.54-3.935 2.384-6.197 2.384s-4.453-.843-6.197-2.385c-1.533-1.655-2.393-3.891-2.393-6.221s.86-4.567 2.393-6.222c1.747-1.534 3.937-2.372 6.197-2.372 2.26 0 4.45.838 6.197 2.372 1.497 1.67 2.333 3.896 2.333 6.21 0 2.315-.836 4.54-2.333 6.211v.022zm-9.13-2.918a4.243 4.243 0 002.953 1.219 4.243 4.243 0 002.954-1.22 5.158 5.158 0 001.136-3.248 5.158 5.158 0 00-1.136-3.25 4.243 4.243 0 00-2.954-1.218 4.243 4.243 0 00-2.954 1.219 5.158 5.158 0 00-1.135 3.249c0 1.194.403 2.348 1.136 3.249zM119.255 28.072c.391 0 .577.24.577.695v17.201a8.968 8.968 0 01-.546 3.384 7.875 7.875 0 01-1.739 2.782c-1.665 1.654-3.805 2.511-5.991 2.4-1.974.08-3.921-.548-5.579-1.8a6.793 6.793 0 01-1.776-2.073 7.92 7.92 0 01-.92-2.725c0-.48 0-.696.555-.696h3.459a.694.694 0 01.41.159c.12.098.214.234.269.393.225.728.672 1.335 1.256 1.703a4.267 4.267 0 002.306.624c.483.03.967-.051 1.423-.24a3.58 3.58 0 001.232-.864c.327-.398.581-.868.747-1.384a4.72 4.72 0 00.221-1.614v-1.512c-1.239 1.061-2.746 1.61-4.282 1.56a6.973 6.973 0 01-3.152-.612 7.962 7.962 0 01-2.695-2.004c-1.484-1.789-2.313-4.18-2.313-6.669 0-2.488.829-4.88 2.313-6.669a8.002 8.002 0 012.699-1.984 7.028 7.028 0 013.148-.607c1.581-.049 3.128.536 4.385 1.655v-.384a.698.698 0 01.146-.507.53.53 0 01.197-.15.465.465 0 01.233-.038l3.417-.024zm-7.987 13.722c.53.02 1.058-.097 1.545-.342a3.7 3.7 0 001.275-1.073c.685-1.03 1.056-2.296 1.056-3.599 0-1.303-.371-2.568-1.056-3.598a3.675 3.675 0 00-1.267-1.058 3.16 3.16 0 00-1.532-.334 3.25 3.25 0 00-1.565.341c-.494.245-.936.611-1.297 1.075-.758.985-1.157 2.276-1.112 3.598-.037 1.31.353 2.587 1.092 3.575.361.462.804.828 1.298 1.072a3.265 3.265 0 001.563.343zM136.754 42.34c-1.753 1.535-3.95 2.374-6.217 2.374-2.268 0-4.465-.839-6.218-2.374-1.504-1.677-2.343-3.908-2.343-6.23 0-2.32.839-4.552 2.343-6.228 1.755-1.531 3.951-2.368 6.218-2.368 2.266 0 4.463.837 6.217 2.368 1.503 1.673 2.341 3.9 2.341 6.218 0 2.317-.838 4.545-2.341 6.218v.022zm-9.181-2.921c.397.404.866.719 1.378.928a3.908 3.908 0 001.606.289 3.914 3.914 0 001.596-.294 4.124 4.124 0 001.368-.923 5.23 5.23 0 001.12-3.253 5.23 5.23 0 00-1.12-3.252c-.395-.401-.86-.715-1.368-.924a3.914 3.914 0 00-1.596-.293 3.908 3.908 0 00-1.606.289 4.117 4.117 0 00-1.378.927 5.23 5.23 0 00-1.12 3.253 5.23 5.23 0 001.12 3.253zM146.268 22.716a3.049 3.049 0 01-2.1.856 3.047 3.047 0 01-2.099-.856 2.898 2.898 0 01-.616-.956 3.087 3.087 0 010-2.285c.143-.361.353-.687.616-.956a3.105 3.105 0 012.099-.833c.769 0 1.512.295 2.1.833.263.27.473.595.616.956a3.087 3.087 0 010 2.285c-.143.361-.353.687-.616.956zm.461 21.99a5.58 5.58 0 01-3.67-1.144 3.72 3.72 0 01-1.031-1.383 4.046 4.046 0 01-.332-1.742V27.463a.653.653 0 01.163-.515.564.564 0 01.218-.148.53.53 0 01.256-.029h3.693c.417 0 .615.238.615.692V38.72c0 .906.374 1.36 1.121 1.36a3.15 3.15 0 00.989-.12c.44 0 .682.143.703.573l.33 2.981a.664.664 0 01-.109.5.588.588 0 01-.185.169.537.537 0 01-.233.07 7.74 7.74 0 01-2.528.454zM163.208 27.53a7.22 7.22 0 013.105.557 7.847 7.847 0 012.663 1.853c1.425 1.694 2.218 3.922 2.218 6.237s-.793 4.544-2.218 6.237a7.791 7.791 0 01-2.659 1.87 7.165 7.165 0 01-3.109.563c-1.51.037-2.989-.473-4.214-1.45v8.055c0 .424-.202.625-.585.625h-3.387a.438.438 0 01-.232-.015.474.474 0 01-.199-.133.587.587 0 01-.134-.477V33.153a1.28 1.28 0 00-.042-.533 1.176 1.176 0 00-.254-.456 1.028 1.028 0 00-.412-.28.952.952 0 00-.482-.047h-.665c-.444 0-.665-.179-.665-.536v-2.633a.763.763 0 01.114-.459.652.652 0 01.349-.277 5.528 5.528 0 012.178-.402 3.434 3.434 0 012.133.499c.65.397 1.178 1 1.517 1.733a6.79 6.79 0 012.282-1.684 6.227 6.227 0 012.698-.548zm-3.145 11.983c.359.416.791.747 1.27.973a3.53 3.53 0 001.513.343c.52 0 1.034-.117 1.513-.343.478-.226.91-.557 1.269-.973.758-.934 1.156-2.16 1.109-3.414.053-1.255-.346-2.483-1.109-3.414a3.863 3.863 0 00-1.269-.973 3.537 3.537 0 00-1.513-.343 3.53 3.53 0 00-1.513.343 3.856 3.856 0 00-1.27.973c-.734.947-1.116 2.167-1.069 3.414-.041 1.246.34 2.464 1.069 3.414zM181.124 44.705a9.65 9.65 0 01-5.367-1.365 5.22 5.22 0 01-1.633-1.658 5.574 5.574 0 01-.79-2.24c0-.441.146-.662.606-.662h3.07a.763.763 0 01.409.14.82.82 0 01.28.345c.439 1.19 1.587 1.784 3.425 1.784.641.03 1.28-.105 1.859-.396.2-.096.371-.246.497-.436.125-.19.198-.413.213-.644 0-.572-.334-.969-1.002-1.233a10.804 10.804 0 00-2.444-.55 22.147 22.147 0 01-2.924-.551 4.747 4.747 0 01-2.443-1.476 4.806 4.806 0 01-.836-1.705 4.944 4.944 0 01.489-3.723 4.626 4.626 0 011.245-1.4 8.266 8.266 0 015.054-1.41 8.859 8.859 0 014.929 1.3 4.77 4.77 0 011.519 1.455c.397.598.663 1.283.778 2.003 0 .44-.188.66-.564.66h-3.091a.62.62 0 01-.371-.095.668.668 0 01-.255-.3 2.156 2.156 0 00-1.086-1.168 3.524 3.524 0 00-1.797-.44 3.475 3.475 0 00-1.775.374c-.194.079-.362.218-.481.398-.119.18-.184.395-.187.615.013.301.118.59.298.824.181.234.427.4.704.475.802.32 1.636.54 2.486.661.976.136 1.945.327 2.903.573a4.747 4.747 0 012.443 1.476c.351.406.623.882.798 1.4.176.518.252 1.068.225 1.617a4.606 4.606 0 01-.491 2.186 4.331 4.331 0 01-1.451 1.646 8.775 8.775 0 01-5.242 1.52zM209.706 43.545a.666.666 0 01-.105.465.587.587 0 01-.167.163.537.537 0 01-.212.08 7.558 7.558 0 01-2.38.434c-.8.09-1.608-.046-2.345-.394a4.747 4.747 0 01-1.865-1.593c-1.488 1.387-3.411 2.099-5.369 1.987a6.073 6.073 0 01-2.667-.474 6.506 6.506 0 01-2.26-1.604 7.614 7.614 0 01-1.455-2.544 8.074 8.074 0 01-.419-2.96v-8.929c0-.434.189-.662.589-.662h3.538c.4 0 .589.228.589.662v8.244a4.262 4.262 0 00.905 2.81c.31.355.686.635 1.104.82.418.186.867.272 1.318.253a3.25 3.25 0 001.356-.228 3.465 3.465 0 001.17-.777c.321-.359.571-.785.734-1.253a3.93 3.93 0 00.214-1.465v-8.404c0-.434.189-.662.589-.662h3.58c.4 0 .589.228.589.662v10.756c0 .891.358 1.325 1.053 1.325.326.014.653-.025.968-.114a.51.51 0 01.47.091.582.582 0 01.161.2c.039.08.061.167.064.257l.253 2.854zM243.936 43.6a.58.58 0 01-.088.463.527.527 0 01-.395.223 7.802 7.802 0 01-2.42.42 5.416 5.416 0 01-3.513-1.062 3.403 3.403 0 01-1.05-1.264 3.599 3.599 0 01-.359-1.636v-5.202a4.05 4.05 0 00-.884-2.722 2.997 2.997 0 00-1.067-.8 2.859 2.859 0 00-1.289-.24 2.52 2.52 0 00-1.159.231 2.649 2.649 0 00-.945.742 4.078 4.078 0 00-.799 2.612v8.168c0 .42-.19.642-.589.642h-3.556a.521.521 0 01-.454-.164.608.608 0 01-.156-.478v-7.99a4.241 4.241 0 00-.82-2.723 2.76 2.76 0 00-.942-.767 2.62 2.62 0 00-1.162-.274 2.918 2.918 0 00-1.256.227 3.045 3.045 0 00-1.058.747 3.775 3.775 0 00-.863 2.612v8.168a.592.592 0 01-.156.478.536.536 0 01-.454.164h-3.429c-.399 0-.589-.221-.589-.642V33.107a1.199 1.199 0 00-.308-.98 1.09 1.09 0 00-.43-.28 1.044 1.044 0 00-.503-.046h-.694c-.463 0-.694-.177-.694-.53v-2.613a.736.736 0 01.119-.455.676.676 0 01.365-.275 6.024 6.024 0 012.272-.399 3.786 3.786 0 012.151.45c.663.36 1.215.91 1.593 1.587a7.07 7.07 0 012.47-1.605 6.788 6.788 0 012.874-.432 5.778 5.778 0 012.759.546 6.085 6.085 0 012.226 1.8 6.954 6.954 0 012.505-1.825 6.638 6.638 0 013.007-.52 6.353 6.353 0 012.694.456 6.627 6.627 0 012.292 1.558 7.291 7.291 0 011.457 2.465c.321.917.463 1.893.415 2.87v4.271c0 .842.358 1.262 1.031 1.262.326.016.653-.021.968-.11.435 0 .666.176.694.53l.189 2.768zM.833 25.338c1.499-7.097 4.97-13.399 9.86-17.902 4.89-4.504 10.919-6.95 17.126-6.95 6.207 0 12.236 2.446 17.126 6.95 4.89 4.503 8.362 10.805 9.86 17.902h-2.437c-4.112-.071-8.14 1.377-11.518 4.14a5.777 5.777 0 01-.61.455h-.284a5.767 5.767 0 01-.61-.455c-3.407-2.7-7.42-4.142-11.527-4.142-4.107 0-8.12 1.443-11.528 4.142a5.777 5.777 0 01-.61.455h-.283a5.767 5.767 0 01-.61-.455c-3.378-2.764-7.405-4.211-11.518-4.14H.833zM47.98 40.343c1.251-1.148 2.802-1.748 4.388-1.699h3.27v-7.682h-3.27c-2.793-.04-5.522.984-7.78 2.92-1.271 1.104-2.809 1.7-4.388 1.7-1.579 0-3.117-.596-4.388-1.7-2.316-1.9-5.07-2.918-7.891-2.918-2.822 0-5.576 1.018-7.892 2.918-1.271 1.104-2.809 1.7-4.388 1.7-1.579 0-3.116-.596-4.387-1.7-2.287-1.96-5.055-2.986-7.882-2.92H0v7.682h3.27c1.586-.05 3.137.551 4.388 1.7 2.312 1.9 5.063 2.919 7.882 2.919s5.57-1.02 7.881-2.92c1.253-1.144 2.803-1.744 4.388-1.699 1.586-.053 3.138.548 4.388 1.7 2.316 1.899 5.07 2.917 7.891 2.917 2.822 0 5.576-1.018 7.892-2.918zm0 13.737c1.251-1.148 2.802-1.748 4.388-1.699h3.27V44.7h-3.27c-2.793-.04-5.522.984-7.78 2.92-1.271 1.104-2.809 1.7-4.388 1.7-1.579 0-3.117-.596-4.388-1.7-2.316-1.9-5.07-2.918-7.891-2.918-2.822 0-5.576 1.018-7.892 2.918-1.271 1.104-2.809 1.7-4.388 1.7-1.579 0-3.116-.596-4.387-1.7-2.287-1.96-5.055-2.986-7.882-2.92H0v7.682h3.27c1.586-.05 3.137.551 4.388 1.7C9.97 55.98 12.721 57 15.54 57s5.57-1.02 7.881-2.92c1.253-1.144 2.803-1.744 4.388-1.699 1.586-.053 3.138.548 4.388 1.7 2.316 1.899 5.07 2.917 7.891 2.917 2.822 0 5.576-1.018 7.892-2.918z"/></svg><svg fill="none" viewBox="0 0 46 92" id="Ellipse_5" xmlns="http://www.w3.org/2000/svg"><path d="M46 7.046C46 3.155 42.827-.055 38.981.54a45.999 45.999 0 00-10.584 87.96A46.003 46.003 0 0038.98 91.46c3.846.594 7.019-2.616 7.019-6.507 0-3.892-3.192-6.97-6.99-7.822a31.906 31.906 0 010-62.265c3.798-.852 6.99-3.93 6.99-7.82z" fill="url(#epaint0_linear_0_300)"/><defs><linearGradient id="epaint0_linear_0_300" x1="40.145" y1="0" x2="85.727" y2="74.855" gradientUnits="userSpaceOnUse"><stop stop-color="#54AFF0"/><stop offset="1" stop-color="#54AFF0" stop-opacity="0"/></linearGradient></defs></svg><svg fill="none" viewBox="0 0 98 98" id="Group1" xmlns="http://www.w3.org/2000/svg"><g filter="url(#ffilter0_d_0_381)"><circle cx="55" cy="43" r="40" fill="#fff"/></g><path d="M55.5 29.75c-7.59 0-13.75 6.16-13.75 13.75s6.16 13.75 13.75 13.75 13.75-6.16 13.75-13.75-6.16-13.75-13.75-13.75zm6.875 15.125h-13.75v-2.75h13.75v2.75z" fill="#5AB2F1"/><defs><filter id="ffilter0_d_0_381" x="0" y="0" width="98" height="98" filterUnits="userSpaceOnUse" color-interpolation-filters="sRGB"><feFlood flood-opacity="0" result="BackgroundImageFix"/><feColorMatrix in="SourceAlpha" values="0 0 0 0 0 0 0 0 0 0 0 0 0 0 0 0 0 0 127 0" result="hardAlpha"/><feOffset dx="-6" dy="6"/><feGaussianBlur stdDeviation="4.5"/><feColorMatrix values="0 0 0 0 0.333333 0 0 0 0 0.690196 0 0 0 0 0.941176 0 0 0 0.5 0"/><feBlend in2="BackgroundImageFix" result="effect1_dropShadow_0_381"/><feBlend in="SourceGraphic" in2="effect1_dropShadow_0_381" result="shape"/></filter></defs></svg><svg fill="none" viewBox="0 0 98 98" id="Group2" xmlns="http://www.w3.org/2000/svg"><g filter="url(#gfilter0_d_0_386)"><circle cx="55" cy="43" r="40" fill="#fff"/></g><path d="M42.25 52.917h8.5V43h-8.5v9.917zm9.917 0h17V43h-17v9.917zM42.25 33.083v8.5h26.917v-8.5H42.25z" fill="#5AB2F1"/><defs><filter id="gfilter0_d_0_386" x="0" y="0" width="98" height="98" filterUnits="userSpaceOnUse" color-interpolation-filters="sRGB"><feFlood flood-opacity="0" result="BackgroundImageFix"/><feColorMatrix in="SourceAlpha" values="0 0 0 0 0 0 0 0 0 0 0 0 0 0 0 0 0 0 127 0" result="hardAlpha"/><feOffset dx="-6" dy="6"/><feGaussianBlur stdDeviation="4.5"/><feColorMatrix values="0 0 0 0 0.333333 0 0 0 0 0.690196 0 0 0 0 0.941176 0 0 0 0.5 0"/><feBlend in2="BackgroundImageFix" result="effect1_dropShadow_0_386"/><feBlend in="SourceGraphic" in2="effect1_dropShadow_0_386" result="shape"/></filter></defs></svg><svg fill="none" viewBox="0 0 98 98" id="Group3" xmlns="http://www.w3.org/2000/svg"><g filter="url(#hfilter0_d_0_391)"><circle cx="55" cy="43" r="40" fill="#fff"/></g><path d="M47 48.2a8.744 8.744 0 008.75 8.75 8.744 8.744 0 008.75-8.75v-5H47v5zm13.9-14.537l2.625-2.625L62.5 30l-2.875 2.888c-1.175-.588-2.475-.938-3.875-.938s-2.7.35-3.862.938L49 30l-1.025 1.038 2.625 2.625C48.425 35.25 47 37.8 47 40.7v1.25h17.5V40.7c0-2.9-1.425-5.45-3.6-7.037zM52 39.45c-.688 0-1.25-.562-1.25-1.25 0-.687.563-1.25 1.25-1.25.688 0 1.25.563 1.25 1.25 0 .688-.563 1.25-1.25 1.25zm7.5 0c-.688 0-1.25-.562-1.25-1.25 0-.687.563-1.25 1.25-1.25.688 0 1.25.563 1.25 1.25 0 .688-.563 1.25-1.25 1.25z" fill="#5AB2F1"/><defs><filter id="hfilter0_d_0_391" x="0" y="0" width="98" height="98" filterUnits="userSpaceOnUse" color-interpolation-filters="sRGB"><feFlood flood-opacity="0" result="BackgroundImageFix"/><feColorMatrix in="SourceAlpha" values="0 0 0 0 0 0 0 0 0 0 0 0 0 0 0 0 0 0 127 0" result="hardAlpha"/><feOffset dx="-6" dy="6"/><feGaussianBlur stdDeviation="4.5"/><feColorMatrix values="0 0 0 0 0.333333 0 0 0 0 0.690196 0 0 0 0 0.941176 0 0 0 0.5 0"/><feBlend in2="BackgroundImageFix" result="effect1_dropShadow_0_391"/><feBlend in="SourceGraphic" in2="effect1_dropShadow_0_391" result="shape"/></filter></defs></svg><svg fill="none" viewBox="0 0 530 560" id="Mask_Group-1" xmlns="http://www.w3.org/2000/svg"><g opacity=".3"><mask id="ia" style="mask-type:alpha" maskUnits="userSpaceOnUse" x="0" y="0" width="531" height="560"><path stroke="#000" d="M200.158.228L.445 390.356M214.502 7.57L14.788 397.698M228.844 14.913L29.131 405.04M243.187 22.255L43.474 412.382M257.53 29.597L57.817 419.725M271.873 36.94L72.16 427.067M286.216 44.282L86.503 434.41M300.559 51.625L100.846 441.752M314.902 58.967L115.188 449.094M329.245 66.309L129.532 456.437M343.588 73.652L143.875 463.779M357.931 80.994L158.217 471.122M372.274 88.337L172.56 478.464M386.616 95.679L186.903 485.807M400.959 103.022L201.246 493.149M415.302 110.364L215.589 500.491M429.645 117.706L229.932 507.834M443.988 125.049L244.275 515.176M458.331 132.391L258.618 522.518M472.674 139.734L272.961 529.861M487.017 147.076L287.304 537.203M501.36 154.418L301.646 544.546M515.703 161.761L315.989 551.888M530.046 169.103L330.332 559.23"/></mask><g mask="url(#ia)"><circle cx="264.8" cy="279.501" r="109.569" transform="rotate(27.109 264.8 279.501)" fill="#1F98F0"/></g></g></svg><svg fill="none" viewBox="0 0 329 347" id="Mask_Group-2" xmlns="http://www.w3.org/2000/svg"><g opacity=".3"><mask id="ja" style="mask-type:alpha" maskUnits="userSpaceOnUse" x="0" y="0" width="330" height="348"><path stroke="#000" d="M124.39.228L.445 242.347M133.292 4.785L9.346 246.904M142.193 9.341L18.248 251.46M151.094 13.898L27.149 256.017M159.996 18.455L36.051 260.574M168.897 23.012L44.952 265.131M177.799 27.569L53.854 269.688M186.7 32.126L62.755 274.244M195.602 36.682L71.656 278.801M204.503 41.239L80.558 283.358M213.404 45.796L89.459 287.915M222.306 50.353L98.361 292.472M231.207 54.91L107.262 297.029M240.109 59.466L116.164 301.585M249.01 64.023L125.065 306.142M257.912 68.58L133.967 310.699M266.813 73.137L142.868 315.256M275.715 77.694L151.769 319.813M284.616 82.25L160.671 324.369M293.517 86.807L169.572 328.926M302.419 91.364L178.474 333.483M311.32 95.921L187.375 338.04M320.222 100.478L196.277 342.597M329.123 105.034L205.178 347.153"/></mask><g mask="url(#ja)"><circle cx="164.339" cy="173.463" r="68" transform="rotate(27.109 164.339 173.463)" fill="#1F98F0"/></g></g></svg></svg>